<svg id="Capa_1" data-name="Capa 1" xmlns="http://www.w3.org/2000/svg" viewBox="0 0 1080 1080"><defs><style>.cls-1{fill:#eae8f3;}.cls-2{fill:#08000c;}.cls-3{fill:#db0082;}</style></defs><circle class="cls-1" cx="543.26" cy="540" r="286.7"/><path class="cls-2" d="M540,833.66a293.66,293.66,0,1,1,207.65-86A291.71,291.71,0,0,1,540,833.66Zm0-564.6C390.6,269.06,269.06,390.6,269.06,540S390.6,810.94,540,810.94,810.94,689.4,810.94,540,689.4,269.06,540,269.06Z"/><path class="cls-3" d="M539.75,784.61c-2.93,0-5.9-.06-8.82-.16a15.14,15.14,0,1,1,1.1-30.27,216.52,216.52,0,0,0,93.72-17.76,15.15,15.15,0,0,1,12.09,27.78,246.86,246.86,0,0,1-98.09,20.41ZM432.87,758a15.1,15.1,0,0,1-7.06-1.76,246.69,246.69,0,0,1-82.55-70.91,15.15,15.15,0,0,1,24.36-18A216.08,216.08,0,0,0,440,729.5a15.15,15.15,0,0,1-7.1,28.54Zm281-53.24a15.14,15.14,0,0,1-11.48-25,216.31,216.31,0,0,0,44.6-84.3,15.15,15.15,0,1,1,29.25,7.87,246.68,246.68,0,0,1-50.88,96.17A15.09,15.09,0,0,1,713.9,704.8ZM314.59,598a15.15,15.15,0,0,1-14.86-12.33,246.32,246.32,0,0,1-4.34-45.88,243.19,243.19,0,0,1,8.28-62.88,15.15,15.15,0,0,1,29.26,7.84,212.17,212.17,0,0,0-7.24,55,216.56,216.56,0,0,0,3.8,40.24,15.15,15.15,0,0,1-12.05,17.71A15.44,15.44,0,0,1,314.59,598Zm450.82-85.41a15.16,15.16,0,0,1-14.87-12.35l0-.31a212.35,212.35,0,0,0-38.22-87.4,15.14,15.14,0,1,1,24.33-18,242.28,242.28,0,0,1,43.63,99.7l.09.45a15.16,15.16,0,0,1-12.09,17.69A16,16,0,0,1,765.41,512.55ZM366,405.66a15.16,15.16,0,0,1-11.49-25A245.27,245.27,0,0,1,442,315.89a15.15,15.15,0,0,1,12.12,27.77,214.64,214.64,0,0,0-76.61,56.71A15.14,15.14,0,0,1,366,405.66Zm281-53.5a15.08,15.08,0,0,1-7.06-1.75,214.71,214.71,0,0,0-92.08-24.59,15.15,15.15,0,0,1,1.07-30.28A245.28,245.28,0,0,1,654,323.62a15.15,15.15,0,0,1-7.08,28.54Z"/><path class="cls-2" d="M535.21,685.85c-42.14,0-81.13-22.61-102.69-59.92l19.67-11.37c18.21,31.5,51.67,50.08,87.3,48.48,51.53-2.32,77.56-46.58,78.64-48.46l19.7,11.33a130.39,130.39,0,0,1-25.61,30.2c-20.77,18.21-45.57,28.45-71.71,29.62C538.74,685.81,537,685.85,535.21,685.85Z"/><path class="cls-2" d="M571.24,561.51a49.54,49.54,0,0,1,10.37-36.32c6.45-7.94,15.18-13,23.95-13.89,9.94-1,20.47,3.06,28.88,11.18A48.89,48.89,0,0,1,649,561l-22.67-1.46a26.25,26.25,0,0,0-7.64-20.74c-3.44-3.31-7.69-5.25-10.82-4.93-2.72.27-6,2.43-8.6,5.61a26.73,26.73,0,0,0-5.42,19.59Z"/><path class="cls-2" d="M431.29,561.51a49.54,49.54,0,0,1,10.37-36.32c6.45-7.94,15.18-13,23.95-13.89,9.93-1,20.46,3.06,28.88,11.18A48.92,48.92,0,0,1,509,561l-22.67-1.46a26.29,26.29,0,0,0-7.64-20.74c-3.44-3.31-7.69-5.25-10.82-4.93-2.72.27-6,2.43-8.6,5.61a26.69,26.69,0,0,0-5.42,19.59Z"/></svg>