<svg id="Capa_1" data-name="Capa 1" xmlns="http://www.w3.org/2000/svg" viewBox="0 0 1080 1080"><defs><style>.cls-1{fill:#db0082;}.cls-2{fill:#13000a;}</style></defs><path class="cls-1" d="M670.35,355.52a54.56,54.56,0,1,0,54.56,54.56A54.67,54.67,0,0,0,670.35,355.52Zm0,84.36a29.8,29.8,0,1,1,29.8-29.8A29.83,29.83,0,0,1,670.35,439.88Zm0-84.36a54.56,54.56,0,1,0,54.56,54.56A54.67,54.67,0,0,0,670.35,355.52Zm0,84.36a29.8,29.8,0,1,1,29.8-29.8A29.83,29.83,0,0,1,670.35,439.88Zm0-84.36a54.56,54.56,0,1,0,54.56,54.56A54.67,54.67,0,0,0,670.35,355.52Zm0,84.36a29.8,29.8,0,1,1,29.8-29.8A29.83,29.83,0,0,1,670.35,439.88Zm0-84.36a54.56,54.56,0,1,0,54.56,54.56A54.67,54.67,0,0,0,670.35,355.52Zm0,84.36a29.8,29.8,0,1,1,29.8-29.8A29.83,29.83,0,0,1,670.35,439.88Zm0-84.36a54.56,54.56,0,1,0,54.56,54.56A54.67,54.67,0,0,0,670.35,355.52Zm0,84.36a29.8,29.8,0,1,1,29.8-29.8A29.83,29.83,0,0,1,670.35,439.88Zm0-84.36a54.56,54.56,0,1,0,54.56,54.56A54.67,54.67,0,0,0,670.35,355.52Zm0,84.36a29.8,29.8,0,1,1,29.8-29.8A29.83,29.83,0,0,1,670.35,439.88Zm0-84.36a54.56,54.56,0,1,0,54.56,54.56A54.67,54.67,0,0,0,670.35,355.52Zm0,84.36a29.8,29.8,0,1,1,29.8-29.8A29.83,29.83,0,0,1,670.35,439.88Zm0-84.36a54.56,54.56,0,1,0,54.56,54.56A54.67,54.67,0,0,0,670.35,355.52Zm0,84.36a29.8,29.8,0,1,1,29.8-29.8A29.83,29.83,0,0,1,670.35,439.88Zm0-84.36a54.56,54.56,0,1,0,54.56,54.56A54.67,54.67,0,0,0,670.35,355.52Zm0,84.36a29.8,29.8,0,1,1,29.8-29.8A29.83,29.83,0,0,1,670.35,439.88Zm0-84.36a54.56,54.56,0,1,0,54.56,54.56A54.67,54.67,0,0,0,670.35,355.52Zm0,84.36a29.8,29.8,0,1,1,29.8-29.8A29.83,29.83,0,0,1,670.35,439.88Zm0-84.36a54.56,54.56,0,1,0,54.56,54.56A54.67,54.67,0,0,0,670.35,355.52Zm0,84.36a29.8,29.8,0,1,1,29.8-29.8A29.83,29.83,0,0,1,670.35,439.88Z"/><path class="cls-2" d="M804.07,420.4l-23.94,11.72c-.08-1.07-.08-2.06-.16-3.14,0-.33-.09-.66-.09-1-4.87-72.38-65.37-129.83-139-129.83-76.85,0-139.33,62.48-139.33,139.33a145.58,145.58,0,0,0,1.65,21.7,137.46,137.46,0,0,0,5.37,21.8c.66,2.14,1.48,4.2,2.23,6.27l-37.56,42.67-.5.49L356.87,659.6l-50.93,56.79-.58.66-1,1.15a15.9,15.9,0,0,0-1.48,2,13,13,0,0,0-.83,1.41,8.11,8.11,0,0,0-.91,1.9c-.08.08-.08.08-.08.16s-.08.25-.16.41H275.49a10.82,10.82,0,0,1,.33-2.31c.24-1.15.49-2.31.82-3.46s.74-2.23,1.16-3.31a39,39,0,0,1,2-4.37c.41-.74.82-1.49,1.24-2.15a33.39,33.39,0,0,1,1.89-2.89,44.5,44.5,0,0,1,3.06-3.88l3.55-4L482.91,481.81a161.22,161.22,0,0,1-6.11-44.32c0-90.47,73.62-164.09,164.09-164.09C725.66,273.4,795.48,337.94,804.07,420.4Z"/><path class="cls-1" d="M805.06,436.66v.83a45,45,0,0,1-.17,4.78c-2.47,88.24-75,159.3-164,159.3a163.3,163.3,0,0,1-70.82-16.09L518.4,590c8.91,18.74,18.32,45.89,8.09,62.15a38.14,38.14,0,0,1-23.94,16.76c-11.06,2.55-23.44.66-37-5.45l2.48,22.7a38.09,38.09,0,0,1-10.15,30.21,37.64,37.64,0,0,1-29.47,12l-26-1.16a54.15,54.15,0,0,1-13,62.32l-5.78,5.28a45.85,45.85,0,0,1-62.56-1.07l-33-32a42.69,42.69,0,0,1-12.62-37.72h25.42A18.21,18.21,0,0,0,305.28,744l33.1,32a21,21,0,0,0,28.72.41l5.78-5.2a29.55,29.55,0,0,0,6.77-34.33l-8.42-17.67A12.41,12.41,0,0,1,383,701.53l46.55,2.15a13.66,13.66,0,0,0,10.4-4.21,13.25,13.25,0,0,0,3.55-10.65l-5.2-47.38a12.34,12.34,0,0,1,19.56-11.31c15.6,11.31,29.39,16.68,38.72,14.78,6-1.16,8.5-5.12,8.58-5.28,4.21-6.53-4.29-32.44-17.09-54A12.42,12.42,0,0,1,497.6,567l18.82-1.65L576.34,561h.08c.5.24,1,.57,1.57.82a139.45,139.45,0,0,0,62.9,15c74.12,0,135-58.19,139.16-131.32.16-2.64.25-8.25.25-8.25,0-1.24,0-2.4-.09-3.63,0-.5-.08-1-.08-1.49l23.94-11.72c.33,2.48.49,5,.66,7.59v.42c.16,1.65.16,3.46.25,5.2C805.06,434.6,805.06,435.59,805.06,436.66Z"/></svg>