<svg id="Capa_1" data-name="Capa 1" xmlns="http://www.w3.org/2000/svg" viewBox="0 0 1080 1080"><defs><style>.cls-1{fill:#170417;}.cls-2{fill:#e00083;}</style></defs><path class="cls-1" d="M644.49,241.64H612.66v18h31.83a52.6,52.6,0,0,1,52.58,52.49V767.74a52.62,52.62,0,0,1-52.58,52.58H435.42a52.6,52.6,0,0,1-52.49-52.58V312.17a52.58,52.58,0,0,1,52.49-52.49h38.44l-.63-18H435.42a70.61,70.61,0,0,0-70.53,70.53V767.74a70.69,70.69,0,0,0,70.53,70.62H644.49a70.71,70.71,0,0,0,70.62-70.62V312.17A70.63,70.63,0,0,0,644.49,241.64Zm-49.87,18v-18H491.27l.63,18Z"/><path class="cls-2" d="M470.51,544.08,475.05,571h.09Z"/><path class="cls-2" d="M493.54,571H641.68l23.48-110.7-190.48.27-5.16-30.37H409.77v18.13H454.2l15.23,89.76,1.08,6L475.14,571,482,610.35H644V592.22H497.26Zm-15.77-92.3,165-.27L627,552.87H490.37l-3.08-18Z"/><rect class="cls-2" x="474.61" y="614.05" width="43.98" height="43.98" rx="21.99"/><rect class="cls-2" x="597.67" y="614.05" width="43.98" height="43.98" rx="21.99"/><path class="cls-1" d="M612.66,259.68v6.07a28.11,28.11,0,0,1-28.1,28H502.24a28.09,28.09,0,0,1-28.1-27l-.28-7.07h18l.28,6.43a10,10,0,0,0,10.06,9.62h82.32a10,10,0,0,0,10.06-10v-6.07Z"/></svg>