<svg id="Capa_1" data-name="Capa 1" xmlns="http://www.w3.org/2000/svg" viewBox="0 0 1080 1080"><defs><style>.cls-1{fill:#1e011f;}.cls-2{fill:#eae3f3;}</style></defs><path class="cls-1" d="M715.11,411V669a43.49,43.49,0,0,1-43.5,43.5H408.39a43.49,43.49,0,0,1-43.5-43.5V411a43.52,43.52,0,0,1,43.5-43.5H671.61A43.52,43.52,0,0,1,715.11,411Z"/><polygon class="cls-2" points="479.52 367.53 453.22 408.32 453.22 457.37 397.35 457.37 397.35 404.55 419.83 367.53 479.52 367.53"/><polygon class="cls-2" points="566.43 403 566.43 457.37 508.3 457.37 508.3 399.23 512.06 367.53 563.46 367.53 566.43 403"/><polygon class="cls-2" points="676.22 404.55 676.22 457.37 620.39 457.37 620.39 408.32 594.1 367.53 653.74 367.53 676.22 404.55"/><rect class="cls-2" x="450.94" y="508.69" width="46.04" height="39.25"/><polygon class="cls-2" points="522.46 681.35 561.51 681.35 561.51 567.56 626.05 679.37 675.3 681.35 675.3 503.03 637.37 503.03 637.37 609.17 574.25 503.03 522.46 503.03 522.46 681.35"/></svg>