<svg id="Capa_1" data-name="Capa 1" xmlns="http://www.w3.org/2000/svg" viewBox="0 0 1080 1080"><defs><style>.cls-1{fill:#08000c;}.cls-2{fill:#db0082;}</style></defs><path class="cls-1" d="M690.73,850.62H389.27a48.25,48.25,0,0,1-48.19-48.19V277.57a48.25,48.25,0,0,1,48.19-48.19H690.73a48.25,48.25,0,0,1,48.19,48.19V802.43A48.25,48.25,0,0,1,690.73,850.62ZM389.27,253.1a24.5,24.5,0,0,0-24.47,24.47V802.43a24.5,24.5,0,0,0,24.47,24.47H690.73a24.5,24.5,0,0,0,24.47-24.47V277.57a24.5,24.5,0,0,0-24.47-24.47Z"/><rect class="cls-1" x="397.6" y="517.12" width="23.72" height="255.7"/><path class="cls-2" d="M630.17,412H581.72A16.71,16.71,0,0,1,565,395.33V320a16.7,16.7,0,0,1,16.69-16.68h48.45A16.7,16.7,0,0,1,646.85,320v75.37A16.7,16.7,0,0,1,630.17,412Zm-43.88-21.27h39.3V324.54h-39.3Z"/></svg>