<svg id="Capa_1" data-name="Capa 1" xmlns="http://www.w3.org/2000/svg" viewBox="0 0 1080 1080"><defs><style>.cls-1{fill:#08000c;}.cls-2{fill:#db0082;}</style></defs><path class="cls-1" d="M452.86,806.05a63.62,63.62,0,0,0,11.4,22.8c2.35.66,4.8,1.22,7.25,1.79l15.64-16A291.76,291.76,0,0,1,452.86,806.05ZM769.59,330.1l-4.05,24.5a286.78,286.78,0,0,1,12.9,337.74v.09c.95,9.71,1.79,19.22,2.64,28.17a305.35,305.35,0,0,0-11.49-390.5ZM657.48,249.65c-2.83,5.37-5.75,11-8.57,16.86a289.36,289.36,0,0,1,41.64,21.2c4.71-4.15,9.51-8.57,14.41-13.1A296.57,296.57,0,0,0,657.48,249.65ZM541.6,226.19a96.71,96.71,0,0,1-.85,18.84,287.92,287.92,0,0,1,90.54,14.79c2.73-5.93,5.65-11.59,8.48-16.95A305.36,305.36,0,0,0,541.6,226.19ZM239,476.79c5.56,3.48,11.4,7.16,17.24,11C276.78,356.39,386.72,254.17,521.63,245.6a88.77,88.77,0,0,0,1-18.94C380.6,234.67,264.15,339.9,239,476.79ZM761.58,714.85C708.82,778.73,629.12,819.52,540,819.52a281.41,281.41,0,0,1-29.77-1.6c-7.82-.75-15.54-1.88-23.08-3.3a291.76,291.76,0,0,1-34.29-8.57c-7.16-2.26-14.14-4.9-21-7.73-105-42.77-179.09-145.93-179.09-266,0-7.82.28-15.64.94-23.27q-9-6.08-17.81-11.59a303.64,303.64,0,0,0-2,34.86c0,133,85.26,246.45,204.06,288.56a272.7,272.7,0,0,0,26.29,8c2.35.66,4.8,1.22,7.25,1.79,7.35,1.69,14.7,3.11,22.23,4.14A299,299,0,0,0,540,838.36c88.27,0,168-37.59,223.94-97.69C763.18,732.66,762.43,724,761.58,714.85ZM721.07,285.73c-4.71,4.52-9.42,8.86-14,13A285.57,285.57,0,0,1,749.52,336l3.86-23A298,298,0,0,0,721.07,285.73ZM452.86,806.05a63.62,63.62,0,0,0,11.4,22.8c2.35.66,4.8,1.22,7.25,1.79l15.64-16A291.76,291.76,0,0,1,452.86,806.05Z"/><path class="cls-1" d="M628.37,615.93l-2-2.16L549.7,595.49c-12.15-9.42-69.9-54-81.68-59.82-13.56-6.78-36,1.6-45.78,5.84l-34.77-5.28c-5.37-3.2-29-18.27-51.62-53.79-18.37-28.73-10.46-41.26-4.24-50.21,7.54,7.06,20.54,21.76,30.9,34.76l15.26,18.94,4.81-78c9.42-3.11,23.55-8.29,44.84-16.2C486.21,370,491.11,347.25,487.71,326c-.18-.94-.37-1.79-.47-2.55,1.89-2.54,7.35-8.29,11.87-13,11.31-11.87,26.85-28,35.61-44.65a62.09,62.09,0,0,0,6-20.73H540q-9.33,0-18.37.57A40,40,0,0,1,518,257.09c-7.44,14.23-21.85,29.21-32.4,40.23-9.14,9.51-14,14.69-16,19.31-1.79,4.24-1.13,8.29-.47,12.34,1.6,9.61,4.15,25.63-48.24,45.13-17.33,6.41-29.11,10.74-37,13.57l.09-1-13.75,5.56c-3.39,1.32-12.44,5-9,13.75.75,2,1.32,3.49,2.45,4.52l-1.61,26.29c-25-28.74-30.71-27.6-35-26.76a10.48,10.48,0,0,0-8,7.35,21.45,21.45,0,0,1-2.26,3.39c-7.16,10.37-22.33,31.75,3.3,71.88,28.73,44.94,59,60.39,60.29,61L425.06,561l2.55-1.22c11.4-5.37,27.41-9.61,31.94-7.35,8.19,4.14,53.6,38.44,80.26,59.16l1.6,1.32,74.81,17.81c8.19,9.51,15.35,20.53,16.11,24.68-3.87,5.93-24.22,21.38-36.56,30.8-15.26,11.59-24.87,19-28.73,24-8.1,10.36-14.6,31.84-16.68,39.47l-63.21,64.91-15.64,16c7.35,1.69,14.7,3.11,22.23,4.14l16.49-16.86,57.09-58.6.57-2.45c2.63-10,8.76-28.26,14-35,2.55-3.4,15.17-12.91,25.25-20.64,30.43-23.17,43-33.53,44-43.05C652.67,644.57,635.72,624.13,628.37,615.93ZM449.18,783c-.66-12.63-.47-21.76-.28-29.11.47-23.08-.28-30.24-21.1-55.78-9.8-12-19.79-18-28.55-23.36-15.54-9.33-25.81-15.45-25.81-56.15,0-44.56-63.78-95.71-117.2-130.76q-1.69,10.45-2.54,21.2c49.93,33.82,100.9,77.06,100.9,109.56,0,47.77,13.75,59.64,34.95,72.35,7.82,4.72,15.92,9.61,23.64,19,17.34,21.29,17.24,23.83,16.87,43.52-.19,7.63-.38,17,.28,30.34a129.78,129.78,0,0,0,1.51,14.5A107.78,107.78,0,0,0,438,820.84a272.7,272.7,0,0,0,26.29,8,63.62,63.62,0,0,1-11.4-22.8A95.38,95.38,0,0,1,449.18,783Z"/><path class="cls-1" d="M707,298.73c-35.61,32.41-67.92,56.43-85.16,56.43a14.19,14.19,0,0,1-5.47-1c-3.86-1.7-10.08-6.41-9.23-18.75,1.6-22.89,12.15-50.69,24.12-75.56,5.93,2.08,11.87,4.24,17.62,6.69-11.4,23.37-21.48,49.27-23,69.72,10.74-2.92,35.42-22.24,64.63-48.52C696.2,291.19,701.66,294.87,707,298.73Z"/><path class="cls-1" d="M778.44,692.34v.09c-5.27,7.73-10.92,15.26-16.86,22.42C755.65,650.6,747.92,564.69,745.19,535c-16.39,2.54-47.48,3.67-69.15-18-25.53-25.53-38.16-76.21-42.3-92.79-.38-1.79-.76-3.11-.94-3.86-3-10.74,7.63-20.45,34.38-41.64,6.69-5.28,13-10.27,16-13.29,10.74-10.64,43.71-13.09,63.68-13.47L749.52,336c5.65,5.93,10.93,12.15,16,18.56l-2.73,16.11h-8c-26.57,0-53.89,3.77-58.22,8-3.87,3.86-10.27,8.95-17.72,14.79-8.47,6.69-23.64,18.65-27.32,24,.1.66.29,1.32.48,2.07,3.86,15.45,15.45,62.27,37.3,84.13,22.14,22,61.24,10.93,61.62,10.84l11-3.21,1,11.4C763.09,524.17,771.47,616.69,778.44,692.34Z"/><path class="cls-2" d="M464.24,600.36H474.5s-2.37-14.89-16.89-17.14v-6.63h-9.38v6.5s-13.82,1-13.39,16.4c.5,18,29.78,13.64,31,24.9s-24.78,11.83-25-1.63h-9.63s1.75,15.52,17.27,18.77v5.88h9v-6.63s15.83-2.61,15.64-15.89c-.13-8.51-3.63-12.43-10.76-15.27-7.65-3-20.87-4.73-19.52-11.88C444.65,588.11,464.87,587.47,464.24,600.36Z"/></svg>