<svg width="48" height="32" viewBox="0 0 48 32" fill="none" xmlns="http://www.w3.org/2000/svg">
<path d="M3.768 10.3C3.768 10.6627 3.75733 11.004 3.736 11.324C3.72533 11.6333 3.70933 11.8787 3.688 12.06H3.768C4.01333 11.6973 4.34933 11.3933 4.776 11.148C5.20267 10.9027 5.752 10.78 6.424 10.78C7.49067 10.78 8.344 11.1533 8.984 11.9C9.63467 12.636 9.96 13.74 9.96 15.212C9.96 16.1933 9.81067 17.0147 9.512 17.676C9.224 18.3373 8.81333 18.8333 8.28 19.164C7.74667 19.4947 7.128 19.66 6.424 19.66C5.752 19.66 5.20267 19.5373 4.776 19.292C4.34933 19.0467 4.01333 18.7533 3.768 18.412H3.656L3.368 19.5H2.36V7.34H3.768V10.3ZM6.184 11.948C5.576 11.948 5.096 12.0653 4.744 12.3C4.392 12.524 4.14133 12.876 3.992 13.356C3.84267 13.8253 3.768 14.428 3.768 15.164V15.228C3.768 16.284 3.93867 17.0947 4.28 17.66C4.632 18.2147 5.27733 18.492 6.216 18.492C6.984 18.492 7.55467 18.2093 7.928 17.644C8.312 17.0787 8.504 16.2627 8.504 15.196C8.504 14.1187 8.312 13.308 7.928 12.764C7.55467 12.22 6.97333 11.948 6.184 11.948ZM10.5473 10.924H12.0513L13.9073 15.804C14.0139 16.092 14.1099 16.3693 14.1953 16.636C14.2913 16.9027 14.3766 17.164 14.4513 17.42C14.5259 17.6653 14.5846 17.9053 14.6273 18.14H14.6913C14.7553 17.8733 14.8566 17.5267 14.9953 17.1C15.1339 16.6627 15.2779 16.2253 15.4273 15.788L17.1713 10.924H18.6913L14.9953 20.684C14.7926 21.2173 14.5526 21.6813 14.2753 22.076C14.0086 22.4813 13.6779 22.7907 13.2833 23.004C12.8993 23.228 12.4299 23.34 11.8753 23.34C11.6193 23.34 11.3953 23.324 11.2033 23.292C11.0113 23.2707 10.8459 23.244 10.7073 23.212V22.092C10.8246 22.1133 10.9633 22.1347 11.1233 22.156C11.2939 22.1773 11.4699 22.188 11.6513 22.188C11.9819 22.188 12.2646 22.124 12.4993 21.996C12.7446 21.8787 12.9526 21.7027 13.1233 21.468C13.2939 21.244 13.4379 20.9773 13.5553 20.668L14.0033 19.532L10.5473 10.924Z" fill="white"/>
<path fill-rule="evenodd" clip-rule="evenodd" d="M35 28C41.6274 28 47 22.6274 47 16C47 9.37258 41.6274 4 35 4C28.3726 4 23 9.37258 23 16C23 22.6274 28.3726 28 35 28ZM30.3399 10.5079C32.9311 9.73479 35.5162 9.23245 38.1924 8.89261C38.4845 8.85996 38.7705 9.05574 38.876 9.35396C39.1245 10.0564 39.2468 10.4087 39.4899 11.1152C39.6053 11.4505 39.4341 11.7848 39.1203 11.828C36.3819 12.2458 33.7277 12.8197 31.0802 13.6588C30.7573 13.7693 30.4389 13.602 30.3574 13.276C30.1647 12.505 30.0692 12.1196 29.8798 11.3509C29.7947 11.0057 30.0025 10.6171 30.3399 10.5079ZM28.2923 16.5516C32.1609 14.7885 36.2413 13.7217 40.4308 13.1717C40.7066 13.1345 40.9856 13.3454 41.0883 13.6611C41.3094 14.3405 41.4178 14.6813 41.6324 15.3639C41.736 15.6931 41.5978 16.0131 41.3271 16.0588C37.0672 16.7625 32.9152 17.942 28.9857 19.7956C28.67 19.9542 28.3497 19.7917 28.2836 19.4387C28.1288 18.6131 28.0525 18.2007 27.9009 17.3766C27.8417 17.0545 28.0101 16.689 28.2923 16.5516ZM32.6743 19.9528C35.2073 19.0563 37.7648 18.3519 40.3807 17.7672C40.6691 17.7061 40.9725 17.9263 41.0763 18.2634C41.2879 18.9493 41.3917 19.293 41.5975 19.982C41.6906 20.2943 41.5668 20.5973 41.3162 20.66C38.7027 21.3138 36.1462 22.1293 33.6142 23.0633C33.2523 23.2053 32.8584 23.0208 32.7626 22.6603C32.5842 21.9884 32.4847 21.6107 32.3276 21.0136C32.3053 20.9287 32.2818 20.8394 32.2567 20.7442C32.1723 20.4231 32.353 20.0743 32.6743 19.9528Z" fill="white"/>
</svg>